<svg width="1200" height="360" viewBox="0 0 1200 360" xmlns="http://www.w3.org/2000/svg">
  <defs>
    <linearGradient id="bg2" x1="0" y1="0" x2="1" y2="1">
      <stop offset="0%" stop-color="#F3F1EB"/>
      <stop offset="100%" stop-color="#FFFFFF"/>
    </linearGradient>
  </defs>
  <rect width="1200" height="360" fill="url(#bg2)"/>
  <rect x="120" y="80" width="210" height="210" rx="28" fill="#FFFFFF" stroke="#7A8767" stroke-width="1.6"/>
  <rect x="150" y="110" width="60" height="140" rx="18" fill="#7A8767" opacity="0.85"/>
  <rect x="220" y="130" width="60" height="120" rx="18" fill="#BFA27A" opacity="0.9"/>

  <rect x="390" y="80" width="210" height="210" rx="28" fill="#FFFFFF" stroke="#7A8767" stroke-width="1.6"/>
  <rect x="420" y="110" width="60" height="90" rx="18" fill="#7A8767" opacity="0.7"/>
  <rect x="490" y="140" width="60" height="120" rx="18" fill="#BFA27A" opacity="0.9"/>

  <rect x="660" y="80" width="210" height="210" rx="28" fill="#FFFFFF" stroke="#7A8767" stroke-width="1.6"/>
  <rect x="690" y="110" width="60" height="120" rx="18" fill="#7A8767" opacity="0.8"/>
  <rect x="760" y="110" width="60" height="140" rx="18" fill="#7A8767" opacity="0.45"/>

  <rect x="930" y="80" width="210" height="210" rx="28" fill="#FFFFFF" stroke="#7A8767" stroke-width="1.6"/>
  <rect x="960" y="130" width="60" height="90" rx="18" fill="#BFA27A" opacity="0.9"/>
  <rect x="1030" y="110" width="60" height="130" rx="18" fill="#7A8767" opacity="0.75"/>

  <text x="120" y="54" font-family="Montserrat, system-ui" font-size="30" fill="#404040" font-weight="600">
    Líneas de suplementos IVB
  </text>
  <text x="120" y="300" font-family="Montserrat, system-ui" font-size="15" fill="#555555">
    Esenciales · Avanzados · Fertilidad · Formatos trimestrales · Packs · Movimiento
  </text>
</svg>
