<svg width="24" height="24" viewBox="0 0 24 24" fill="none"
  xmlns="http://www.w3.org/2000/svg">
  <path d="M4 19.5L5.2 16.1C4.45 14.9 4 13.49 4 12C4 7.58 7.58 4 12 4C16.42 4 20 7.58 20 12C20 16.42 16.42 20 12 20C10.61 20 9.29 19.64 8.12 18.96L4 19.5Z"
    stroke="#7A8767" stroke-width="1.8" stroke-linecap="round" stroke-linejoin="round" fill="white"/>
  <path d="M10.3 9.2C10.15 8.87 9.93 8.84 9.7 8.84C9.52 8.84 9.3 8.84 9.08 8.84C8.7 8.92 8.38 9.21 8.22 9.56C8.02 10.01 7.84 10.64 8.33 11.46C8.82 12.28 9.63 13.36 10.93 14.15C11.71 14.62 12.44 14.78 13.02 14.87C13.49 14.95 13.91 14.91 14.25 14.83C14.63 14.73 14.95 14.46 15.14 14.16C15.32 13.86 15.36 13.56 15.32 13.36C15.28 13.16 15.13 13.1 14.93 13.02C14.65 12.9 13.93 12.53 13.68 12.43C13.43 12.33 13.25 12.29 13.09 12.52C12.93 12.75 12.64 13.11 12.51 13.27C12.39 13.43 12.27 13.45 12.07 13.35C11.34 12.99 10.78 12.54 10.3 11.9C10.18 11.74 10.26 11.64 10.35 11.54C10.43 11.46 10.53 11.33 10.61 11.22C10.69 11.11 10.73 11.02 10.79 10.88C10.83 10.74 10.79 10.63 10.74 10.54C10.69 10.45 10.49 10.02 10.3 9.63C10.3 9.63 10.3 9.2 10.3 9.2Z"
    fill="#7A8767"/>
</svg>
